# xmcd
#
# Track frame offsets: 
#        150
#        14069
#        27637
#        41742
#        58580
#        71745
#        89248
#        100231
#        118904
#        133236
#        156590
#        188300
#
# Disc length: 2659 seconds
#
# Revision: 1
# Processed by: cddbd v1.5.2PL0 Copyright (c) Steve Scherf et al.
# Submitted via: ExactAudioCopyFreeDBPlugin 1.0
#
DISCID=b80a610c
DTITLE=Nalle And His Crazy Ivans - Long As I Can See The Light
DYEAR=2012
DGENRE=Rock
TTITLE0=Long As I Can See The Light
TTITLE1=Honkey Tonk Blues
TTITLE2=Devil's In The Jukebox
TTITLE3=The Way We Make A Broken Heart
TTITLE4=My Babe
TTITLE5=I Almost Lost My Mind
TTITLE6=Good Morning Blues
TTITLE7=He Was A Friend Of Mine
TTITLE8=Strange Things Happening Everyday
TTITLE9=634-5789
TTITLE10=Backwater Blues
TTITLE11=Cold And Bitter Tears
EXTD=
EXTT0=
EXTT1=
EXTT2=
EXTT3=
EXTT4=
EXTT5=
EXTT6=
EXTT7=
EXTT8=
EXTT9=
EXTT10=
EXTT11=
PLAYORDER=
